<svg width="26" height="26" viewBox="0 0 26 26" fill="none" xmlns="http://www.w3.org/2000/svg">
<g clip-path="url(#clip0_582_9252)">
<path d="M17.9295 0H8.07051C5.26901 0 3 2.26606 3 5.06756V10.5714H3.96713C5.38504 10.5714 6.5714 11.7232 6.5714 13.1412V15.5715H19.4285V13.1412C19.4285 11.7233 20.6149 10.5714 22.0328 10.5714H22.9999V5.06756C23 2.26606 20.731 0 17.9295 0Z" fill="#F4C182"/>
<path d="M19.4275 18.5703H6.57031V24.6417H19.4275V18.5703Z" fill="#F4C182"/>
<path d="M3.96486 12H1.28346C0.653313 12 0.140625 12.5109 0.140625 13.1412V26H5.14065V13.1411C5.1406 12.5109 4.595 12 3.96486 12Z" fill="#F4C182"/>
<path d="M24.7166 12H22.0351C21.405 12 20.8594 12.5109 20.8594 13.1412V26H25.8594V13.1411C25.8594 12.511 25.3467 12 24.7166 12Z" fill="#F4C182"/>
</g>
<defs>
<clipPath id="clip0_582_9252">
<rect width="26" height="26" fill="white"/>
</clipPath>
</defs>
</svg>
