<svg width="27" height="27" viewBox="0 0 27 27" fill="none" xmlns="http://www.w3.org/2000/svg">
<path fill-rule="evenodd" clip-rule="evenodd" d="M20.5312 17.4668V25.3748H18.6833V24.1531H7.78271V25.3748H5.93481V17.4668H5.29761V16.2517H6.85107L7.71899 13.5557C7.97388 12.7625 8.40234 12.0396 9.23511 12.0396H17.5518C18.3867 12.0396 18.8679 12.7471 19.0679 13.5557L19.738 16.2517H21.1663V17.4668H20.5312ZM8.87036 7.38354C9.11865 8.53271 9.86133 9.1084 9.86133 9.68188C9.86133 10.2576 9.61304 10.8311 8.87036 10.8311C8.12768 10.8311 7.87939 10.2576 7.87939 9.68188C7.87939 9.1062 8.62427 8.53271 8.87036 7.38354ZM13.1484 5.98169C13.4934 7.5791 14.5261 8.37891 14.5261 9.17651C14.5261 9.97632 14.1812 10.7739 13.1484 10.7739C12.1157 10.7739 11.7708 9.97412 11.7708 9.17651C11.7708 8.37891 12.8035 7.5791 13.1484 5.98169ZM17.7429 5.22363C18.0879 6.95947 19.1206 7.8252 19.1206 8.69312C19.1206 9.56104 18.7756 10.429 17.7429 10.429C16.7102 10.429 16.3652 9.56104 16.3652 8.69312C16.363 7.82739 17.3979 6.95947 17.7429 5.22363ZM2.01489 25.3726H0V2.63525C0 2.07935 0.450439 1.62891 1.00635 1.62891H25.9937C26.5496 1.62891 27 2.07935 27 2.63525V25.3726H24.9851V3.6438H2.01489V25.3726ZM10.4656 21.7119H15.9258V22.9995H10.4656V21.7119ZM6.55444 18.7126C7.94531 18.7566 8.79565 19.3389 9.01538 20.554H6.55444V18.7126ZM19.738 18.7126C18.3472 18.7566 17.4968 19.3389 17.2771 20.554H19.738V18.7126ZM7.51684 16.2495H18.9492L18.4592 13.9885C18.3252 13.3689 17.9385 12.8328 17.3035 12.8328H9.3977C8.76269 12.8328 8.4375 13.3821 8.24194 13.9885L7.51684 16.2495Z" fill="#F4C182"/>
</svg>
