<svg width="30" height="30" viewBox="0 0 30 30" fill="none" xmlns="http://www.w3.org/2000/svg">
<path d="M28.6289 10.5342C27.668 5.28418 21.9375 1.69824 17.0391 0.995117C16.6523 0.936523 16.2539 0.901367 15.832 0.889648C15.2813 0.854492 14.7305 0.854492 14.2031 0.889648C13.7578 0.901367 13.3594 0.936523 12.9727 0.995117C8.07422 1.69824 2.34375 5.28418 1.38281 10.5342L1.25391 11.2373L1.96875 11.2021C4.83984 11.0615 7.64063 11.7295 9.65625 13.0186L9.89063 13.1709L10.1602 13.0771C11.6133 12.5381 13.3477 12.3975 14.25 12.3506L14.4492 12.3389C14.5195 12.3389 15.2578 12.3389 15.3633 12.3271L15.7734 12.3389C16.875 12.3857 18.4805 12.5498 19.8516 13.0654L20.1211 13.1592L20.3555 13.0068C22.3711 11.7178 25.1836 11.0615 28.043 11.1904L28.7578 11.2256L28.6289 10.5342ZM27.2812 10.042C24.5508 10.042 21.9961 10.6865 19.9805 11.9053C18.5273 11.4131 16.9336 11.2607 15.8203 11.2021L15.4102 11.1904C15.2695 11.1904 14.4609 11.1904 14.4023 11.1904L14.1914 11.2021C13.0781 11.249 11.4727 11.4131 10.0312 11.9053C8.01562 10.6982 5.46094 10.042 2.73047 10.042C2.70703 10.042 2.68359 10.042 2.67187 10.042C3.87891 5.70605 8.84766 2.74121 13.125 2.13184C13.4648 2.08496 13.8281 2.0498 14.25 2.03809C14.7422 2.00293 15.2461 2.00293 15.7617 2.03809C16.1602 2.0498 16.5234 2.08496 16.8633 2.13184C21.1523 2.75293 26.1094 5.70606 27.3398 10.0537C27.3281 10.042 27.3047 10.042 27.2812 10.042Z" fill="#F4C182"/>
<path d="M15.1891 20.8008C13.654 20.2617 12.7048 19.8633 12.5641 18.7617C12.4587 17.9648 13.0563 17.1211 13.9001 16.8633C14.779 16.6055 15.9626 16.7109 17.0758 17.1562C17.3688 17.2734 17.6969 17.1328 17.8141 16.8398C17.9313 16.5469 17.7907 16.2187 17.4977 16.1016C16.8532 15.8437 16.1852 15.6797 15.5407 15.6211V14.4961C15.5407 14.1797 15.2829 13.9219 14.9665 13.9219C14.6501 13.9219 14.3923 14.1797 14.3923 14.4961V15.6211C14.111 15.6562 13.8298 15.7031 13.5719 15.7734C12.1891 16.1836 11.2516 17.5664 11.4274 18.9141C11.6735 20.7773 13.3376 21.3633 14.8141 21.8789C15.6227 22.1602 16.3727 22.4297 16.8298 22.8633C17.2399 23.25 17.4508 23.7422 17.4508 24.2578C17.4508 24.7617 17.2165 25.2539 16.8063 25.6172C16.3493 26.0273 15.7282 26.2617 14.9313 26.3203C14.3337 26.3555 13.6423 26.2852 12.7985 26.1328C12.5993 26.0977 12.3766 26.0508 12.1891 25.9922C11.8844 25.8984 11.568 26.0742 11.4743 26.3789C11.3805 26.6836 11.5563 27 11.861 27.0937C12.1071 27.1641 12.3649 27.2227 12.5876 27.2578C13.2673 27.3867 13.8415 27.4453 14.3805 27.4687V28.5703C14.3805 28.8867 14.6383 29.1445 14.9548 29.1445C15.2712 29.1445 15.529 28.8867 15.529 28.5703V27.3984C16.3493 27.2578 17.029 26.9648 17.568 26.4727C18.2243 25.8867 18.5876 25.1133 18.5993 24.2695C18.611 23.4258 18.2594 22.6406 17.6266 22.043C16.9938 21.4336 16.0798 21.1172 15.1891 20.8008Z" fill="#F4C182"/>
</svg>
